<?xml version="1.0" encoding="UTF-8" standalone="no"?>
<svg width="93px" height="90px" viewBox="0 0 93 90" version="1.1" xmlns="http://www.w3.org/2000/svg" xmlns:xlink="http://www.w3.org/1999/xlink">
    <!-- Generator: Sketch 42 (36781) - http://www.bohemiancoding.com/sketch -->
    <title>Page 1</title>
    <desc>Created with Sketch.</desc>
    <defs>
        <polygon id="path-1" points="64.894389 42.6586358 64.894389 0.180690079 0.140980903 0.180690079 0.140980903 85.1365815 64.894389 85.1365815 64.894389 42.6586358"></polygon>
        <polygon id="path-3" points="29.8454972 49.3033402 0 49.3033402 0 0.0285959373 29.8454972 0.0285959373"></polygon>
    </defs>
    <g id="Assets-Verticaux-Prune" stroke="none" stroke-width="1" fill="none" fill-rule="evenodd">
        <g id="Facebook" transform="translate(-76.000000, -210.000000)">
            <g id="FB">
                <g id="Group" transform="translate(19.000000, 83.000000)">
                    <g id="Page-1" transform="translate(58.000000, 128.000000)">
                        <g id="Group-3" transform="translate(25.850941, 0.085814)">
                            <mask id="mask-2" fill="white">
                                <use xlink:href="#path-1"></use>
                            </mask>
                            <g id="Clip-2"></g>
                            <path d="M3.99463658,77.2099369 L4.69927459,77.5302754 C5.31090251,77.8077066 5.89028338,78.1880086 6.52269866,78.7260813 C9.43745884,81.2051065 13.4129071,81.2813268 13.5107143,81.2829259 L46.385382,81.2701336 C49.3790275,81.0785169 51.7178714,78.592829 51.7178714,75.5903888 C51.7178714,74.6730802 51.5025357,73.7928157 51.0782605,72.9751798 L49.8560707,70.6235437 L52.4696807,70.1867428 C55.2264037,69.7256899 57.2273198,67.3631271 57.2273198,64.56936 C57.2273198,63.3293144 56.8294285,62.1452347 56.0749542,61.1453097 L54.4284891,58.9602389 L57.0410331,58.1463341 C59.4326449,57.4001213 61.0407333,55.2118525 61.0407333,52.7008467 C61.0407333,50.6530258 59.9294093,48.7512494 58.1408974,47.7377327 L55.59418,46.2940776 L57.9274272,44.5258199 C59.3556251,43.443012 60.1817891,41.8026765 60.1937818,40.0253577 C60.2041755,38.5902308 59.6152005,37.2020086 58.5371896,36.1162691 C57.3797604,34.9505782 55.7972564,34.2821849 54.1960971,34.2821849 L29.1177532,34.2821849 L31.1277305,21.2567754 C31.2633813,20.3671832 31.332939,19.4549382 31.332939,18.5485562 C31.332939,12.0149309 27.0531426,4.03418585 22.0580479,4.03418585 C21.1338102,4.03418585 20.2274282,4.2775045 19.4313792,4.73109523 L20.3457562,16.7632423 C20.4225095,17.771429 20.3414922,18.772953 20.1064352,19.739565 C19.8767082,20.6888542 19.5020029,21.5987007 18.9924462,22.440855 L7.42161848,43.8894071 L3.99463658,46.8201575 L3.99463658,77.2099369 Z M13.5059172,85.1365815 L13.5051177,85.1365815 C13.2849849,85.1365815 8.06522695,85.0968724 4.0252846,81.6610958 C3.67376511,81.3618112 3.38167613,81.1643313 3.10557743,81.0385412 L0.140980903,79.6918937 L0.140980903,45.0447043 L4.371474,41.4271716 L15.6779292,20.474851 C15.991072,19.9631623 16.221332,19.4098989 16.3615133,18.8307845 C16.5016947,18.2546017 16.5491325,17.658431 16.5035603,17.0550648 L15.4303465,2.94151723 L16.1925495,2.3059039 C17.8358165,0.935271039 19.918816,0.180530177 22.0580479,0.180530177 C29.4516834,0.180530177 35.1865947,10.0542569 35.1865947,18.5485562 C35.1865947,19.648687 35.1029122,20.7570794 34.9371464,21.8420193 L33.6115528,30.4285292 L54.1960971,30.4285292 C56.8171693,30.4285292 59.3961338,31.5118701 61.2720592,33.4005878 C63.078427,35.2200143 64.0644938,37.5825771 64.0474375,40.0517417 C64.0325133,42.2005678 63.311885,44.2286674 62.0164064,45.8716679 C63.8302363,47.6479206 64.894389,50.1040265 64.894389,52.7008467 C64.894389,56.1057088 63.1293294,59.1563863 60.3302322,60.8588173 C60.8251311,62.0245081 61.0809755,63.2781455 61.0809755,64.56936 C61.0809755,68.4715195 58.7535913,71.8710515 55.305289,73.3450881 C55.4822481,74.0742445 55.5715271,74.8244548 55.5715271,75.5903888 C55.5715271,80.6539751 51.608871,84.839962 46.5490158,85.1208578 L46.4437465,85.1237893 L13.5059172,85.1365815 Z" id="Fill-1" stroke="#FFFFFF" stroke-width="2" fill="#FFFFFF"></path>
                        </g>
                        <g id="Group-6" transform="translate(0.000000, 38.462468)">
                            <mask id="mask-4" fill="white">
                                <use xlink:href="#path-3"></use>
                            </mask>
                            <g id="Clip-5"></g>
                            <path d="M3.96044405,3.88225161 C3.90634362,3.88225161 3.85357572,3.93528602 3.85357572,3.98938644 L3.85357572,45.3428962 C3.85357572,45.3969966 3.90634362,45.4497645 3.96044405,45.4497645 L25.8847067,45.4497645 C25.9388071,45.4497645 25.9918415,45.3969966 25.9918415,45.3428962 L25.9918415,3.98938644 C25.9918415,3.93528602 25.9388071,3.88225161 25.8847067,3.88225161 L3.96044405,3.88225161 Z M25.8847067,49.3034202 L3.96044405,49.3034202 C1.77670583,49.3034202 -7.99513625e-05,47.5266344 -7.99513625e-05,45.3428962 L-7.99513625e-05,3.98938644 C-7.99513625e-05,1.80538172 1.77670583,0.0285959373 3.96044405,0.0285959373 L25.8847067,0.0285959373 C28.0687114,0.0285959373 29.8454972,1.80538172 29.8454972,3.98938644 L29.8454972,45.3428962 C29.8454972,47.5266344 28.0687114,49.3034202 25.8847067,49.3034202 L25.8847067,49.3034202 Z" id="Fill-4" stroke="#FFFFFF" stroke-width="2" fill="#FFFFFF"></path>
                        </g>
                    </g>
                </g>
            </g>
        </g>
    </g>
</svg>