<?xml version="1.0" encoding="UTF-8" standalone="no"?>
<svg width="67px" height="84px" viewBox="0 0 67 84" version="1.1" xmlns="http://www.w3.org/2000/svg" xmlns:xlink="http://www.w3.org/1999/xlink">
    <!-- Generator: Sketch 42 (36781) - http://www.bohemiancoding.com/sketch -->
    <title>Fill 1</title>
    <desc>Created with Sketch.</desc>
    <defs></defs>
    <g id="Assets-Verticaux-Prune" stroke="none" stroke-width="1" fill="none" fill-rule="evenodd">
        <g id="Pinterest" transform="translate(-96.000000, -212.000000)" fill="#FFFFFF">
            <g id="FB">
                <g id="Group" transform="translate(10.000000, 83.000000)">
                    <path d="M113.293975,184.341152 C111.088638,195.804691 108.443813,207.26823 100.506707,213 C97.8618823,195.362571 104.03314,182.135815 107.120085,168.469571 C101.830435,160.092977 107.562205,143.779276 117.702016,147.747829 C130.047164,152.59799 106.680597,177.730406 122.552177,181.256839 C138.865878,184.343783 145.479256,153.037479 135.339445,142.458179 C120.788961,127.468207 92.5722326,142.016059 96.0986657,163.622041 C96.980274,168.911691 102.272555,170.235419 98.3040023,177.290917 C89.0457995,175.527701 85.9588547,168.032714 86.398343,158.332392 C86.840463,142.018691 100.948827,130.555152 115.057191,129.231424 C132.69462,127.468207 149.447809,135.844801 151.653146,152.158502 C154.29797,171.117028 143.716039,191.399281 124.757514,189.636065 C119.467864,189.636065 117.262528,186.99124 113.293975,184.346415 L113.293975,184.341152 Z" id="Fill-1"></path>
                </g>
            </g>
        </g>
    </g>
</svg>